Coordinates
version=1
nRows=8
nColumns=36
inDegrees=yes

Units are S.I. units (second, meters, Newtons, ...)
If the header above contains a line with 'inDegrees', this indicates whether rotational values are in degrees (yes) or radians (no).

endheader
time	pelvis_tilt	pelvis_list	pelvis_rotation	pelvis_tx	pelvis_ty	pelvis_tz	hip_flexion_r	hip_adduction_r	hip_rotation_r	knee_angle_r	knee_angle_r_beta	ankle_angle_r	subtalar_angle_r	mtp_angle_r	hip_flexion_l	hip_adduction_l	hip_rotation_l	knee_angle_l	knee_angle_l_beta	ankle_angle_l	subtalar_angle_l	mtp_angle_l	lumbar_extension	lumbar_bending	lumbar_rotation	arm_flex_r	arm_add_r	arm_rot_r	elbow_flex_r	pro_sup_r	arm_flex_l	arm_add_l	arm_rot_l	elbow_flex_l	pro_sup_l
      0.00000000	      6.50937891	     -2.59837700	     -0.65406650	     -0.99051527	      1.23626816	     -0.06681911	     -7.08812946	      1.69533732	     -4.01582624	      6.23459597	      0.10881423	      0.08145835	    -15.95287673	     -5.36678765	     -8.82860764	     -3.32169066	     -2.68764514	      4.34143991	      0.07577242	      7.47204268	     -9.77452449	     -5.36678765	    -17.11258419	      4.25981554	      0.28292585	      9.08823870	    -14.09555449	      4.64568119	     30.62106911	     80.78934820	      4.09677678	    -11.98048928	     11.79955173	     32.41483275	     70.38215190
      0.00416670	      4.54842777	     -1.76042647	     -0.65282311	     -0.98767074	      1.23208510	     -0.06662861	     -4.82588482	      1.19993078	     -3.61927704	      6.62242946	      0.11558320	      3.87096311	    -13.24204973	     -6.02958085	     -5.81794158	     -2.15756264	     -3.64435812	      5.30373456	      0.09256763	      7.36505703	     -8.71181613	     -6.02958085	    -13.90576241	      3.39545064	     -0.06539487	      8.08673760	    -13.33426139	      0.52318841	     30.74785139	     80.66570551	      3.96971454	    -11.38929421	      7.02824867	     31.10378818	     70.88047704
      0.00833330	      3.93397711	     -1.07899246	     -1.02271692	     -0.98767498	      1.23304574	     -0.06549960	     -4.27879502	      0.45755751	     -4.64734049	      6.24638894	      0.10902005	      4.54399759	    -12.42057235	     -6.30961832	     -5.18715637	     -1.52315366	     -5.07790161	      5.38168409	      0.09392811	      7.04086717	     -8.38101586	     -6.30961832	    -12.95433047	      2.30716776	     -0.01020139	      7.96584093	    -13.17623698	      0.53817211	     30.81607104	     78.71213831	      4.32038648	    -12.44763824	      8.58474103	     30.61060095	     70.22292642
      0.01250000	      4.53916068	     -0.72730375	     -1.07914326	     -0.98659418	      1.23447542	     -0.06526713	     -5.14410356	      0.04495654	     -5.01559455	      5.78915561	      0.10103983	      5.13128181	    -11.89694428	     -6.43575695	     -6.40843661	     -1.08243304	     -5.65332185	      4.66046411	      0.08134044	      6.68610214	     -8.90782868	     -6.43575695	    -13.69426123	      1.69930757	      0.11447474	      7.68879277	    -13.09427838	      0.26922679	     31.47585717	     77.13383032	      4.48500705	    -13.25238527	      9.47444624	     31.06671475	     69.62274041
      0.01666670	      4.78423870	     -0.57508837	     -1.04625208	     -0.98690641	      1.23539869	     -0.06438871	     -5.65568946	     -0.00766679	     -5.38512597	      5.30406044	      0.09257332	      5.70993782	    -11.18805684	     -6.61390625	     -6.98579170	     -0.91076793	     -5.82334659	      4.11357362	      0.07179540	      6.49493340	     -9.13124111	     -6.61390625	    -14.01219619	      1.43667442	      0.63044924	      6.99474491	    -13.14190652	     -0.32432818	     32.30933797	     75.93673921	      5.29169301	    -13.94417982	     12.93716362	     30.61330869	     70.08784138
      0.02083330	      5.12018700	     -0.54655585	     -0.99863340	     -0.98550676	      1.23500879	     -0.06592602	     -6.25470908	      0.00501295	     -5.59673184	      4.88393638	      0.08524077	      6.12518770	    -10.74709246	     -6.87431086	     -7.51331028	     -0.79928624	     -5.63142946	      3.61441470	      0.06308344	      6.70580007	     -8.74026803	     -6.87431086	    -14.38176344	      1.40600843	      0.65025303	      6.85138897	    -13.14902426	     -0.26941457	     32.75304778	     73.09104316	      5.43739344	    -13.99405524	     13.26636286	     30.86511923	     68.32735480
      0.02500000	      5.37188569	     -0.50358756	     -0.92053982	     -0.98595313	      1.23659344	     -0.06561249	     -6.75525197	      0.02248863	     -5.66488051	      4.47218827	      0.07805441	      6.09631261	    -10.76738739	     -6.92558789	     -7.90399099	     -0.74247364	     -5.54187956	      3.32926228	      0.05810659	      6.53350030	     -8.82989319	     -6.92558789	    -14.81050875	      1.33832663	      0.71744212	      6.69633688	    -13.23210098	     -0.17773122	     33.10530024	     72.35144689	      5.54951026	    -14.08370177	     13.51792640	     31.13828311	     67.88890841
      0.02916670	      5.54359348	     -0.47319963	     -0.90046193	     -0.98571280	      1.23813463	     -0.06559704	     -7.14444758	      0.00752564	     -5.84628880	      4.11848400	      0.07188111	      5.96263729	    -10.80517526	     -6.94107308	     -8.16909213	     -0.70652613	     -5.49801573	      3.09836919	      0.05407674	      6.28101170	     -8.84865306	     -6.94107308	    -14.98555237	      1.28976702	      0.75001376	      6.70394535	    -13.26332472	      0.01053475	     32.99226222	     72.33593991	      5.78238382	    -14.05106207	     13.93631471	     30.93735988	     67.93518550
